<svg xmlns="http://www.w3.org/2000/svg" width="262" height="20" viewBox="0 0 262 20" fill="none">
<path d="M163.476 0.361572V2.93787H168.433V19.6355H171.365V2.93787H176.379V0.361572H163.476Z" fill="black"/>
<path d="M204.712 0.347288V11.6053C204.712 14.4702 204.825 15.2803 205.309 16.4091C206.335 18.6668 208.757 19.9985 211.861 19.9985C214.965 19.9985 217.387 18.6668 218.412 16.4091C218.896 15.3088 219.01 14.4702 219.01 11.6053V0.347288H216.076V11.5467C216.076 13.6014 216.018 14.2672 215.762 14.9902C215.25 16.4947 213.825 17.3921 211.859 17.3921C210.064 17.3921 208.669 16.639 208.1 15.3374C207.73 14.5272 207.644 13.8614 207.644 11.5451V0.345703H204.71L204.712 0.347288Z" fill="black"/>
<path d="M240.421 6.01981C240.027 2.16409 237.676 0 233.943 0C231.979 0 230.126 0.724532 228.731 1.99762C226.822 3.79231 225.825 6.56996 225.825 10.0436C225.825 16.092 229.043 20 234.057 20C238.046 20 240.373 17.5236 240.71 12.9592L238.046 12.7642C237.762 15.8319 236.365 17.3952 233.973 17.3952C230.841 17.3952 228.903 14.5589 228.903 10.0151C228.903 5.47126 230.839 2.60483 233.915 2.60483C236.052 2.60483 237.391 3.82085 237.846 6.19421H238.046L240.423 6.01981H240.421Z" fill="black"/>
<path d="M257.461 0.361572L251.278 8.09205H250.122V0.361572H247.193V19.637H250.122V10.6636H251.061L257.661 19.637H261.5L253.508 9.37782L260.904 0.361572H257.461Z" fill="black"/>
<path d="M188.265 2.93308C190.796 2.93308 191.422 3.02028 192.219 3.42456C193.159 3.88592 193.699 4.84034 193.699 6.05477C193.699 7.47054 193.015 8.53911 191.849 8.97351C191.082 9.26206 190.456 9.32072 188.407 9.32072H187.099V2.93467H188.265V2.93308ZM184.17 19.6354H187.099V11.8907H190.028L194.323 19.6354H197.794L193.129 11.4008C195.518 10.4178 196.742 8.59777 196.742 6.0833C196.742 3.85896 195.66 2.00878 193.869 1.14156C192.589 0.534347 191.395 0.361542 188.238 0.361542C186.902 0.363128 185.406 0.329834 184.17 0.648502V19.6354Z" fill="black"/>
<path d="M48.7443 0.361572H45.7854V19.6355H48.7443V0.361572Z" fill="black"/>
<path d="M88.7891 0.361572V19.637H99.7866L99.9676 17.0639H91.8041V0.361572H88.7891Z" fill="black"/>
<path d="M110.978 8.36633V2.9347H119.283L119.102 0.361572H108.047V19.637H119.33L119.511 17.0639H110.978V10.9395H116.152V8.36633H110.978Z" fill="black"/>
<path d="M32.0458 12.5534H26.6664L29.3413 3.87961L32.0458 12.5534ZM27.9414 0.363159L21.4572 19.637H24.4738L25.897 15.1265H32.8136L34.2088 19.637H37.2535L30.788 0.363159H27.9414Z" fill="black"/>
<path d="M59.9977 0.366333L58.8772 19.6323H61.5786L62.5103 4.425L68.1144 19.6323H69.6219L75.2541 4.425L76.1873 19.6323H78.8871L77.7666 0.366333H73.965L68.8681 13.9993L63.829 0.366333H59.9977Z" fill="black"/>
<path d="M131.96 2.93467C134.493 2.93467 135.117 3.02187 135.914 3.42615C136.854 3.8875 137.394 4.84192 137.394 6.05635C137.394 7.47213 136.71 8.5407 135.544 8.9751C134.777 9.26365 134.151 9.3223 132.103 9.3223H130.796V2.93625H131.961L131.96 2.93467ZM127.865 19.637H130.794V11.8923H133.723L138.018 19.637H141.489L136.824 11.4024C139.213 10.4194 140.437 8.59777 140.437 6.08489C140.437 3.86055 139.357 2.01037 137.564 1.14315C136.284 0.535934 135.09 0.363129 131.933 0.363129C130.599 0.364715 129.101 0.331421 127.866 0.650089V19.637H127.865Z" fill="black"/>
<path d="M3.4308 17.0639V2.86494H4.2548C7.3557 2.86494 8.1516 2.98226 9.28927 3.70363C11.0231 4.80232 11.9267 7.098 11.9267 9.95809C11.9267 12.8182 11.0808 15.071 9.48747 16.138C8.40754 16.861 7.43997 17.0623 4.96486 17.0623H3.42924L3.4308 17.0639ZM0.5 0.64536V19.6355H3.94268C7.89722 19.6355 9.19564 19.4151 10.7984 18.5082C13.4327 17.0164 14.973 13.8011 14.973 9.98662C14.973 6.14358 13.3328 2.79994 10.6283 1.33185C9.18159 0.547069 7.55545 0.359985 4.34219 0.359985C3.24665 0.359985 1.51439 0.367914 0.501566 0.643776L0.5 0.64536Z" fill="black"/>
</svg>
