<svg width="110" height="15" viewBox="0 0 110 15" fill="none" xmlns="http://www.w3.org/2000/svg">
<path d="M0.71875 0.669922H2.80859C3.95443 0.669922 4.8431 0.71224 5.47461 0.796875C7.08268 1.00521 8.33594 1.75065 9.23438 3.0332C10.0807 4.23763 10.5039 5.66667 10.5039 7.32031C10.5039 9.14323 10.0286 10.6569 9.07812 11.8613C8.14062 13.0462 6.89714 13.7233 5.34766 13.8926C4.73568 13.9642 3.83724 14 2.65234 14H0.71875V0.669922ZM2.21289 12.7012H3.18945C4.24414 12.7012 4.99935 12.6589 5.45508 12.5742C5.91081 12.4896 6.36654 12.3073 6.82227 12.0273C7.49284 11.6172 8.01042 11.0052 8.375 10.1914C8.73958 9.3776 8.92188 8.42383 8.92188 7.33008C8.92188 5.72201 8.53125 4.43294 7.75 3.46289C7.11849 2.68164 6.2819 2.21615 5.24023 2.06641C4.75846 2.0013 3.95117 1.96875 2.81836 1.96875H2.21289V12.7012ZM14.1953 7.00781H12.7988C12.89 6.20052 13.1764 5.57227 13.6582 5.12305C14.2832 4.54362 15.1816 4.25391 16.3535 4.25391C17.3496 4.25391 18.1406 4.48177 18.7266 4.9375C19.0716 5.20443 19.3027 5.53971 19.4199 5.94336C19.5371 6.34701 19.5957 7.01758 19.5957 7.95508V11.5098C19.5892 12.6686 19.6771 13.4987 19.8594 14H18.5215C18.4173 13.6159 18.349 13.1895 18.3164 12.7207C17.763 13.7363 16.8353 14.2441 15.5332 14.2441C14.6868 14.2441 13.9935 14.0358 13.4531 13.6191C12.8021 13.1113 12.4766 12.4082 12.4766 11.5098C12.4766 10.1621 13.2122 9.21484 14.6836 8.66797C15.4974 8.36198 16.679 8.08203 18.2285 7.82812V7.42773C18.2285 6.77018 18.1211 6.30794 17.9062 6.04102C17.5872 5.64388 17.0501 5.44531 16.2949 5.44531C15.0905 5.44531 14.3906 5.96615 14.1953 7.00781ZM18.2285 8.86328C16.8548 9.11068 15.8587 9.3776 15.2402 9.66406C14.3613 10.0742 13.9219 10.6569 13.9219 11.4121C13.9219 11.9069 14.0911 12.3073 14.4297 12.6133C14.7682 12.9193 15.2077 13.0723 15.748 13.0723C16.6986 13.0723 17.3952 12.6979 17.8379 11.9492C18.0983 11.5065 18.2285 10.7936 18.2285 9.81055V8.86328ZM22.5254 4.51758H24V14H22.5254V4.51758ZM23.2773 0.484375C23.5703 0.484375 23.8112 0.582031 24 0.777344C24.1888 0.972656 24.2832 1.22005 24.2832 1.51953C24.2832 1.80599 24.1855 2.04688 23.9902 2.24219C23.8014 2.43099 23.5605 2.52539 23.2676 2.52539C22.9681 2.52539 22.7207 2.43099 22.5254 2.24219C22.3366 2.05339 22.2422 1.81576 22.2422 1.5293C22.2422 1.22982 22.3398 0.982422 22.5352 0.787109C22.737 0.585286 22.9844 0.484375 23.2773 0.484375ZM26.7051 4.51758H28.0723C28.196 4.86914 28.2611 5.30534 28.2676 5.82617C28.847 4.77799 29.765 4.25391 31.0215 4.25391C32.291 4.25391 33.1602 4.80729 33.6289 5.91406C34.2604 4.80729 35.2337 4.25391 36.5488 4.25391C37.7337 4.25391 38.5475 4.66081 38.9902 5.47461C39.1465 5.75456 39.2441 6.05404 39.2832 6.37305C39.3288 6.68555 39.3516 7.29102 39.3516 8.18945V14H37.9648V8.19922C37.9648 7.58724 37.9486 7.16406 37.916 6.92969C37.8835 6.6888 37.8118 6.4707 37.7012 6.27539C37.4147 5.76107 36.8874 5.50391 36.1191 5.50391C35.2728 5.50391 34.6445 5.83919 34.2344 6.50977C33.9805 6.92643 33.8535 7.55143 33.8535 8.38477V14H32.457V8.41406C32.4505 7.34635 32.3854 6.67578 32.2617 6.40234C31.9818 5.80339 31.4414 5.50391 30.6406 5.50391C30.2305 5.50391 29.8561 5.59505 29.5176 5.77734C29.179 5.95964 28.9186 6.21354 28.7363 6.53906C28.4759 6.98828 28.3457 7.63281 28.3457 8.47266V14H26.9492V7.44727C26.9427 6.43815 26.9264 5.79036 26.9004 5.50391C26.8809 5.21745 26.8158 4.88867 26.7051 4.51758ZM42.2422 0.601562H43.7168V14H42.2422V0.601562ZM54 9.49805H47.5254C47.5579 10.5137 47.75 11.3079 48.1016 11.8809C48.5833 12.6556 49.3027 13.043 50.2598 13.043C50.7871 13.043 51.2201 12.9323 51.5586 12.7109C51.9036 12.4896 52.2064 12.1217 52.4668 11.6074L53.7754 11.7637C53.196 13.4173 52.0208 14.2441 50.25 14.2441C49.0911 14.2441 48.1374 13.8665 47.3887 13.1113C46.5228 12.2324 46.0898 10.9824 46.0898 9.36133C46.0898 7.57747 46.5716 6.21354 47.5352 5.26953C48.2253 4.59245 49.1009 4.25391 50.1621 4.25391C51.4772 4.25391 52.4896 4.80404 53.1992 5.9043C53.7331 6.73763 54 7.80208 54 9.09766C54 9.20182 54 9.33529 54 9.49805ZM52.5449 8.39453C52.4863 7.69792 52.3366 7.12174 52.0957 6.66602C51.666 5.8457 51.0052 5.43555 50.1133 5.43555C49.4167 5.43555 48.8535 5.6862 48.4238 6.1875C47.9941 6.6888 47.7077 7.42448 47.5645 8.39453H52.5449ZM56.2461 4.51758H57.5742C57.6914 5.01237 57.75 5.4974 57.75 5.97266C57.75 6.10286 57.7435 6.29818 57.7305 6.55859C58.375 5.02214 59.1921 4.25391 60.1816 4.25391C60.5397 4.25391 60.9238 4.35482 61.334 4.55664V5.95312C60.8001 5.70573 60.3737 5.58203 60.0547 5.58203C59.2799 5.58203 58.6712 6.07031 58.2285 7.04688C57.9551 7.65885 57.8184 8.56055 57.8184 9.75195V13.9902L56.4023 14V7.78906C56.3958 6.66276 56.3861 5.94987 56.373 5.65039C56.36 5.35091 56.3177 4.97331 56.2461 4.51758ZM66.8809 0.669922H75.3086V1.96875H71.8418V14H70.3477V1.96875H66.8809V0.669922ZM75.9141 4.51758H77.2422C77.3594 5.01237 77.418 5.4974 77.418 5.97266C77.418 6.10286 77.4115 6.29818 77.3984 6.55859C78.043 5.02214 78.86 4.25391 79.8496 4.25391C80.2077 4.25391 80.5918 4.35482 81.002 4.55664V5.95312C80.4681 5.70573 80.0417 5.58203 79.7227 5.58203C78.9479 5.58203 78.3392 6.07031 77.8965 7.04688C77.623 7.65885 77.4863 8.56055 77.4863 9.75195V13.9902L76.0703 14V7.78906C76.0638 6.66276 76.054 5.94987 76.041 5.65039C76.028 5.35091 75.9857 4.97331 75.9141 4.51758ZM82.6621 4.51758H84.0488V10.3184C84.0488 11.2624 84.1595 11.9004 84.3809 12.2324C84.7129 12.7402 85.2533 12.9941 86.002 12.9941C86.8418 12.9941 87.4798 12.6393 87.916 11.9297C88.1895 11.487 88.3262 10.8099 88.3262 9.89844V4.51758H89.7227V11.1191C89.7227 12.1868 89.7324 12.8477 89.752 13.1016C89.7715 13.3555 89.8366 13.6549 89.9473 14H88.5703C88.4466 13.6224 88.3815 13.1992 88.375 12.7305C88.0885 13.2643 87.7467 13.6517 87.3496 13.8926C86.9525 14.127 86.4512 14.2441 85.8457 14.2441C85.071 14.2441 84.4134 14.0553 83.873 13.6777C83.4043 13.3392 83.0853 12.9388 82.916 12.4766C82.7467 12.0143 82.6621 11.2949 82.6621 10.3184V4.51758ZM99.5273 7.60352H98.1406C98.0365 6.99154 97.8867 6.53581 97.6914 6.23633C97.3529 5.71549 96.819 5.45508 96.0898 5.45508C95.3346 5.45508 94.752 5.74479 94.3418 6.32422C93.8145 7.06641 93.5508 8.04948 93.5508 9.27344C93.5508 10.7383 93.9089 11.8158 94.625 12.5059C94.9961 12.8639 95.4974 13.043 96.1289 13.043C97.3594 13.043 98.0527 12.2747 98.209 10.7383H99.6055C99.5273 11.7279 99.2507 12.5221 98.7754 13.1211C98.1764 13.8698 97.291 14.2441 96.1191 14.2441C95.071 14.2441 94.1953 13.8958 93.4922 13.1992C92.5677 12.2812 92.1055 10.9759 92.1055 9.2832C92.1055 7.52539 92.5905 6.17122 93.5605 5.2207C94.2181 4.57617 95.0742 4.25391 96.1289 4.25391C97.125 4.25391 97.9128 4.54362 98.4922 5.12305C99.0781 5.69596 99.4232 6.52279 99.5273 7.60352ZM107.34 4.51758H109.029L105.074 8.78516L109.332 14H107.398L103.336 8.83398L107.34 4.51758ZM101.91 0.601562H103.307V14H101.91V0.601562Z" fill="black"/>
</svg>
